<?xml version="1.0" encoding="UTF-8" standalone="no" ?>
<!DOCTYPE svg PUBLIC "-//W3C//DTD SVG 1.1//EN" "http://www.w3.org/Graphics/SVG/1.1/DTD/svg11.dtd">
<svg xmlns="http://www.w3.org/2000/svg" xmlns:xlink="http://www.w3.org/1999/xlink" version="1.1" width="1920" height="1080" viewBox="0 0 1920 1080" xml:space="preserve">
<desc>Created with Fabric.js 4.6.0</desc>
<defs>
</defs>
<g transform="matrix(1 0 0 1 1760.47 541.15)" id="8ErlS5Qq-G7RDsrsVMEvb"  >
<g style="" vector-effect="non-scaling-stroke"   >
		<g transform="matrix(-0.82 0 0 2.83 -0.51 -0.78)" id="5WQShdg7sfKwkzeB6zuUu"  >
<path style="stroke: rgb(192,57,43); stroke-width: 0; stroke-dasharray: none; stroke-linecap: butt; stroke-dashoffset: 0; stroke-linejoin: miter; stroke-miterlimit: 4; fill: rgb(230,126,34); fill-rule: nonzero; opacity: 1;" vector-effect="non-scaling-stroke"  transform=" translate(0, 0)" d="M -190.52988 -190.52988 L 190.52987000000002 -190.52988 L 190.52987000000002 190.52987000000002 L -190.52988 190.52987000000002 z" stroke-linecap="round" />
</g>
		<g transform="matrix(0.53 0 0 1.5 0 90.22)" id="f8v38Ol6azJdMMqNEkAEd"  >
<path style="stroke: rgb(179,0,10); stroke-width: 1; stroke-dasharray: none; stroke-linecap: butt; stroke-dashoffset: 0; stroke-linejoin: miter; stroke-miterlimit: 4; fill: rgb(231,76,60); fill-rule: nonzero; opacity: 1;" vector-effect="non-scaling-stroke"  transform=" translate(-300, -300)" d="M 0 0 L 0 600 L 600 600 L 600 0 L 0 0 z M 589.409 470.595 L 10.591 470.595 L 10.591 50.191 L 187.834 50.191 C 209.961 50.191 227.925 32.554 228.53300000000002 10.582 L 589.409 10.582 L 589.409 470.595 z" stroke-linecap="round" />
</g>
		<g transform="matrix(0.53 0 0 1.5 -0.51 417.67)" id="XugWpAGGaFYT3ImmKBKME"  >
<path style="stroke: none; stroke-width: 1; stroke-dasharray: none; stroke-linecap: butt; stroke-dashoffset: 0; stroke-linejoin: miter; stroke-miterlimit: 4; fill: rgb(192,57,43); fill-rule: nonzero; opacity: 1;" vector-effect="non-scaling-stroke"  transform=" translate(-300, -519.5)" d="M 435.594 550.336 C 352.774 550.336 247.237 550.336 164.406 550.336 C 82.94200000000001 550.336 86.778 510.928 86.918 488.664 C 87.59200000000001 510.852 95.357 539.164 164.406 539.164 C 247.236 539.164 352.773 539.164 435.594 539.164 C 504.64300000000003 539.164 512.399 510.851 513.082 488.664 C 513.231 510.928 517.058 550.336 435.594 550.336 z" stroke-linecap="round" />
</g>
		<g transform="matrix(0.53 0 0 1.5 -0.51 332.05)" id="FtLVuZSYGzLGTl0YaDXoK"  >
<path style="stroke: none; stroke-width: 1; stroke-dasharray: none; stroke-linecap: butt; stroke-dashoffset: 0; stroke-linejoin: miter; stroke-miterlimit: 4; fill: rgb(174,185,213); fill-rule: nonzero; opacity: 1;" vector-effect="non-scaling-stroke"  transform=" translate(-300, -462.42)" d="M 86.301 470.594 L 56.137 470.594 C 56.137 452.11 71.322 454.336 71.322 454.336 C 76.776 456.156 84.205 460.512 86.301 470.594 z M 528.678 454.336 C 523.2139999999999 456.156 515.804 460.512 513.699 470.594 L 543.8629999999999 470.594 C 543.863 452.109 528.678 454.336 528.678 454.336 z" stroke-linecap="round" />
</g>
		<g transform="matrix(0.53 0 0 1.5 -0.51 383.54)" id="bS1YeZHPe7lfAC7HmWV3U"  >
<path style="stroke: none; stroke-width: 1; stroke-dasharray: none; stroke-linecap: butt; stroke-dashoffset: 0; stroke-linejoin: miter; stroke-miterlimit: 4; fill: rgb(250,234,190); fill-rule: nonzero; opacity: 1;" vector-effect="non-scaling-stroke"  transform=" translate(-300, -496.75)" d="M 528.678 454.336 C 523.2139999999999 456.156 515.804 460.512 513.699 470.594 C 513.334 472.352 513.072 474.242 513.072 476.379 C 513.072 498.418 518.424 539.164 435.593 539.164 C 352.773 539.164 300.004 539.164 300.004 539.164 C 300.004 539.164 247.235 539.164 164.40500000000003 539.164 C 81.58400000000003 539.164 86.92600000000003 498.418 86.92600000000003 476.379 C 86.92600000000003 474.242 86.67400000000004 472.35200000000003 86.30000000000003 470.594 C 84.20400000000002 460.512 76.77500000000002 456.156 71.32100000000003 454.336 L 528.678 454.336 z" stroke-linecap="round" />
</g>
</g>
</g>
<g transform="matrix(0.53 0 0 0.33 1760.47 98.48)" id="OXaQpOBrTSunR0J4yuEBo"  >
<path style="stroke: rgb(179,0,10); stroke-width: 1; stroke-dasharray: none; stroke-linecap: butt; stroke-dashoffset: 0; stroke-linejoin: miter; stroke-miterlimit: 4; fill: rgb(231,76,60); fill-rule: nonzero; opacity: 1;" vector-effect="non-scaling-stroke"  transform=" translate(0, 0)" d="M -300 -299.999 L -300 299.999 L 300 299.999 L 300 -299.999 z M 290.569 202.751 L 100.013 202.751 L 56.09700000000001 290.569 L -290.56999999999994 290.569 L -290.56999999999994 -239.35899999999998 L -130.91999999999993 -239.35899999999998 L -87.09299999999993 -290.56899999999996 L 290.5690000000001 -290.56899999999996 z" stroke-linecap="round" />
</g>
<g transform="matrix(1 0 0 1 1762.8 939.29)" style="filter: url(#SVGID_267);" id="QesNRiNGrFI_K5OecbIIe"  >
<filter id="SVGID_267" y="-30%" height="160%" x="-23%" width="146%" >
	<feGaussianBlur in="SourceAlpha" stdDeviation="2"></feGaussianBlur>
	<feOffset dx="4" dy="4" result="oBlur" ></feOffset>
	<feFlood flood-color="rgb(0,0,0)" flood-opacity="1"/>
	<feComposite in2="oBlur" operator="in" />
	<feMerge>
		<feMergeNode></feMergeNode>
		<feMergeNode in="SourceGraphic"></feMergeNode>
	</feMerge>
</filter>
		<text xml:space="preserve" font-family="Roboto" font-size="30" font-style="italic" font-weight="800" line-height="1.5" style="stroke: rgb(255,255,255); stroke-width: 2; stroke-dasharray: none; stroke-linecap: butt; stroke-dashoffset: 0; stroke-linejoin: miter; stroke-miterlimit: 4; fill: rgb(5,4,4); fill-rule: nonzero; opacity: 1; white-space: pre;" ><tspan x="-110.53" y="-13.63" style="white-space: pre; ">HOPPY WORMS </tspan></text>
</g>
<g transform="matrix(0.57 0 0 0.33 1902.96 40.87)" id="S7HlIelBafeFdJiN8tLbd"  >
<path style="stroke: rgb(149,0,8); stroke-width: 0; stroke-dasharray: none; stroke-linecap: butt; stroke-dashoffset: 0; stroke-linejoin: miter; stroke-miterlimit: 4; fill: rgb(216,48,48); fill-rule: nonzero; opacity: 1;" vector-effect="non-scaling-stroke"  transform=" translate(-569.22, -122)" d="M 590.569 51.312 L 590.569 192.692 L 553.1569999999999 192.692 C 550.233 192.692 547.871 188.179 547.871 182.60500000000002 L 547.871 61.392 C 547.871 55.827000000000005 550.233 51.312000000000005 553.1569999999999 51.312000000000005 L 590.569 51.312000000000005 z" stroke-linecap="round" />
</g>
<g transform="matrix(0.65 0 0 0.65 1722.92 44.32)" id="CrF7YuA1WwSzsIjGQo8Ze"  >
<filter id="SVGID_86" y="-30%" height="160%" x="-36%" width="172%" >
	<feGaussianBlur in="SourceAlpha" stdDeviation="2"></feGaussianBlur>
	<feOffset dx="6" dy="4" result="oBlur" ></feOffset>
	<feFlood flood-color="rgb(0,0,0)" flood-opacity="1"/>
	<feComposite in2="oBlur" operator="in" />
	<feMerge>
		<feMergeNode></feMergeNode>
		<feMergeNode in="SourceGraphic"></feMergeNode>
	</feMerge>
</filter>
<path style="stroke: none; stroke-width: 0; stroke-dasharray: none; stroke-linecap: butt; stroke-dashoffset: 0; stroke-linejoin: miter; stroke-miterlimit: 4; fill: rgb(26,188,156); fill-rule: nonzero; opacity: 1;filter: url(#SVGID_86);" vector-effect="non-scaling-stroke"  transform=" translate(-40, -40)" d="M 29.281 13.34 L 29.281 61.20099999999999 C 26.951 59.78699999999999 24.101999999999997 59.017999999999994 21.116 59.017999999999994 C 13.748999999999999 59.017999999999994 7.756 63.724999999999994 7.756 69.50899999999999 C 7.756 75.295 13.749 80 21.116 80 C 28.137999999999998 80 34.066 75.793 34.715 70.495 L 34.779 70.495 L 34.779 27.256 L 67.049 16.703 L 67.049 46.851 C 64.71900000000001 45.437 61.870000000000005 44.67 58.885000000000005 44.67 C 51.51800000000001 44.67 45.525000000000006 49.375 45.525000000000006 55.161 C 45.525000000000006 60.945 51.51800000000001 65.652 58.885000000000005 65.652 C 66.25200000000001 65.652 72.245 60.945 72.245 55.161 L 72.245 0 L 29.281 13.34 z M 34.779 20.875 L 34.779 18.168 L 67.049 7.614999999999998 L 67.049 10.640999999999998 L 34.779 20.875 z" stroke-linecap="round" />
</g>
<g transform="matrix(1 0 0 1 1863.57 182.68)" style="filter: url(#SVGID_10);" id="HN9t0d2pb6CYm53b5Y9yd"  >
<filter id="SVGID_10" y="-43%" height="186%" x="-28%" width="156%" >
	<feGaussianBlur in="SourceAlpha" stdDeviation="2.5"></feGaussianBlur>
	<feOffset dx="4" dy="4" result="oBlur" ></feOffset>
	<feFlood flood-color="rgb(0,0,0)" flood-opacity="1"/>
	<feComposite in2="oBlur" operator="in" />
	<feMerge>
		<feMergeNode></feMergeNode>
		<feMergeNode in="SourceGraphic"></feMergeNode>
	</feMerge>
</filter>
		<text xml:space="preserve" font-family="Roboto" font-size="31" font-style="italic" font-weight="800" letter-spacing="0.62" line-height="1.36" style="stroke: rgb(255,255,255); stroke-width: 2; stroke-dasharray: none; stroke-linecap: butt; stroke-dashoffset: 0; stroke-linejoin: miter; stroke-miterlimit: 4; fill: rgb(5,4,4); fill-rule: nonzero; opacity: 1; white-space: pre;" ><tspan x="-53.64" y="7.54" >S</tspan><tspan x="-34.04" y="7.54" >C</tspan><tspan x="-13.53" y="7.54" >O</tspan><tspan x="8.01" y="7.54" >R</tspan><tspan x="28.4" y="7.54" >E</tspan><tspan x="46" y="7.54" style="white-space: pre; "> </tspan></text>
</g>
<g transform="matrix(1 0 0 1 1765.18 1057.84)" style="filter: url(#SVGID_5);" id="KNLr_mefcLQY5UPujuurJ"  >
<filter id="SVGID_5" y="-39%" height="178%" x="-23%" width="146%" >
	<feGaussianBlur in="SourceAlpha" stdDeviation="2"></feGaussianBlur>
	<feOffset dx="4" dy="4" result="oBlur" ></feOffset>
	<feFlood flood-color="rgb(0,0,0)" flood-opacity="1"/>
	<feComposite in2="oBlur" operator="in" />
	<feMerge>
		<feMergeNode></feMergeNode>
		<feMergeNode in="SourceGraphic"></feMergeNode>
	</feMerge>
</filter>
		<text xml:space="preserve" font-family="Roboto" font-size="31" font-style="italic" font-weight="800" letter-spacing="0.62" line-height="1.5" style="stroke: rgb(255,255,255); stroke-width: 2; stroke-dasharray: none; stroke-linecap: butt; stroke-dashoffset: 0; stroke-linejoin: miter; stroke-miterlimit: 4; fill: rgb(5,4,4); fill-rule: nonzero; opacity: 1; white-space: pre;" ></text>
</g>
<g transform="matrix(0.53 0 0 0.33 1708.69 182.43)" id="FHRmpP7l84DAmYFiw32sS"  >
<path style="stroke: rgb(179,0,10); stroke-width: 1; stroke-dasharray: none; stroke-linecap: butt; stroke-dashoffset: 0; stroke-linejoin: miter; stroke-miterlimit: 4; fill: rgb(243,156,18); fill-rule: nonzero; opacity: 1;" vector-effect="non-scaling-stroke"  transform=" translate(-201.08, -553.77)" d="M 392.728 516.966 L 356.097 590.57 L 9.43 590.57 L 9.43 516.966 L 392.728 516.966 z" stroke-linecap="round" />
</g>
<g transform="matrix(1 0 0 1 1727.57 123.86)" id="ppvjr246rbcl1_qep499-"  >
<filter id="SVGID_80" y="-34%" height="168%" x="-34%" width="168%" >
	<feGaussianBlur in="SourceAlpha" stdDeviation="2"></feGaussianBlur>
	<feOffset dx="4" dy="4" result="oBlur" ></feOffset>
	<feFlood flood-color="rgb(0,0,0)" flood-opacity="1"/>
	<feComposite in2="oBlur" operator="in" />
	<feMerge>
		<feMergeNode></feMergeNode>
		<feMergeNode in="SourceGraphic"></feMergeNode>
	</feMerge>
</filter>
<g style="filter: url(#SVGID_80);" vector-effect="non-scaling-stroke"   >
		<g transform="matrix(0.7 0 0 0.7 0 0)" id="qADoz_vOhonKvsY41av8g"  >
<path style="stroke: none; stroke-width: 1; stroke-dasharray: none; stroke-linecap: butt; stroke-dashoffset: 0; stroke-linejoin: miter; stroke-miterlimit: 4; fill: rgb(52,152,219); fill-rule: nonzero; opacity: 1;" vector-effect="non-scaling-stroke"  transform=" translate(-40, -40)" d="M 66.1 0 L 13.9 0 C 6.2 0 0 6.2 0 13.9 L 0 66.10000000000001 C 0 73.8 6.2 80 13.9 80 L 66.10000000000001 80 C 73.8 80 80 73.8 80 66.1 L 80 13.9 C 80 6.2 73.8 0 66.1 0 z" stroke-linecap="round" />
</g>
		<g transform="matrix(0.7 0 0 0.7 0 0)" id="WA5Uvz6a7tJE6r-fzhC2E"  >
<path style="stroke: none; stroke-width: 1; stroke-dasharray: none; stroke-linecap: butt; stroke-dashoffset: 0; stroke-linejoin: miter; stroke-miterlimit: 4; fill: rgb(255,255,255); fill-rule: nonzero; opacity: 1;" vector-effect="non-scaling-stroke"  transform=" translate(-40, -40)" d="M 69.6 20.7 C 69.6 15 65 10.399999999999999 59.3 10.399999999999999 L 20.7 10.399999999999999 C 15 10.399999999999999 10.399999999999999 14.999999999999998 10.399999999999999 20.7 L 10.399999999999999 59.3 C 10.399999999999999 65 14.999999999999998 69.6 20.7 69.6 L 59.3 69.6 C 65 69.6 69.6 65 69.6 59.3 L 69.6 59.3 L 69.6 20.7 z" stroke-linecap="round" />
</g>
		<g transform="matrix(0.7 0 0 0.7 -4.34 -6.44)" id="F6fjgKbzZEsNQ8p2UfTwa"  >
<path style="stroke: none; stroke-width: 1; stroke-dasharray: none; stroke-linecap: butt; stroke-dashoffset: 0; stroke-linejoin: miter; stroke-miterlimit: 4; fill: rgb(131,0,7); fill-rule: nonzero; opacity: 1;" vector-effect="non-scaling-stroke"  transform=" translate(-33.8, -30.8)" d="M 44.6 20.3 L 44.6 44.2 L 25.9 44.2 C 24.299999999999997 44.2 23 42.900000000000006 23 41.300000000000004 C 23 39.7 24.3 38.400000000000006 25.9 38.400000000000006 L 38.9 38.400000000000006 L 38.9 20.3 C 38.9 18.7 40.199999999999996 17.400000000000002 41.8 17.400000000000002 C 43.3 17.4 44.6 18.7 44.6 20.3 z" stroke-linecap="round" />
</g>
</g>
</g>
<g transform="matrix(1 0 0 1 1652.11 49.09)" id="Us2uD8we-6onIopKdp57Y"  >
<filter id="SVGID_78" y="-36%" height="172%" x="-33%" width="166%" >
	<feGaussianBlur in="SourceAlpha" stdDeviation="2"></feGaussianBlur>
	<feOffset dx="4" dy="4" result="oBlur" ></feOffset>
	<feFlood flood-color="rgb(0,0,0)" flood-opacity="1"/>
	<feComposite in2="oBlur" operator="in" />
	<feMerge>
		<feMergeNode></feMergeNode>
		<feMergeNode in="SourceGraphic"></feMergeNode>
	</feMerge>
</filter>
<g style="filter: url(#SVGID_78);" vector-effect="non-scaling-stroke"   >
		<g transform="matrix(0.77 0 0 0.77 -11.31 0)" id="vS18bHyjaR13KSDQ2R0Fo"  >
<path style="stroke: none; stroke-width: 1; stroke-dasharray: none; stroke-linecap: butt; stroke-dashoffset: 0; stroke-linejoin: miter; stroke-miterlimit: 4; fill: rgb(52,73,94); fill-rule: nonzero; opacity: 1;" vector-effect="non-scaling-stroke"  transform=" translate(-24.85, -39.94)" d="M 48.3 8.7 C 47.4 8.2 46.3 8.1 45.4 8.6 L 22.4 23.4 L 16 23.4 C 7.3 23.4 0 31 0 40 C 0 48.8 7.2 56 16 56 L 22.3 56 C 22.3 56 45.3 71.3 45.3 71.3 C 45.699999999999996 71.5 46.199999999999996 71.6 46.699999999999996 71.6 C 47.199999999999996 71.6 47.8 71.5 48.3 71.19999999999999 C 49.199999999999996 70.69999999999999 49.699999999999996 69.69999999999999 49.699999999999996 68.6 L 49.699999999999996 11.3 C 49.7 10.2 49.2 9.3 48.3 8.7 z" stroke-linecap="round" />
</g>
		<g transform="matrix(0.77 0 0 0.77 -11.99 0.08)" id="mfbX2Fd6vMnzLBFfeuOjQ"  >
<path style="stroke: none; stroke-width: 1; stroke-dasharray: none; stroke-linecap: butt; stroke-dashoffset: 0; stroke-linejoin: miter; stroke-miterlimit: 4; fill: rgb(52,152,219); fill-rule: nonzero; opacity: 1;" vector-effect="non-scaling-stroke"  transform=" translate(-24.9, -40.05)" d="M 16 29.7 L 22.3 29.7 L 22.3 50.4 L 16 50.4 C 10.5 50.3 6 45.8 6 40.3 C 6 34.5 10.6 29.7 16 29.7 z M 28.3 51.8 L 43.8 61.9 L 43.8 18.2 L 28.3 28.2 L 28.3 51.8 z" stroke-linecap="round" />
</g>
		<g transform="matrix(0.77 0 0 0.77 20.07 0.04)" id="SIMGDZxdtLYxIlNgz-ocy"  >
<path style="stroke: none; stroke-width: 1; stroke-dasharray: none; stroke-linecap: butt; stroke-dashoffset: 0; stroke-linejoin: miter; stroke-miterlimit: 4; fill: rgb(131,0,7); fill-rule: nonzero; opacity: 1;" vector-effect="non-scaling-stroke"  transform=" translate(-66.53, -39.99)" d="M 80 40 C 80 53.8 70.2 65.4 56.6 67.7 C 56.4 67.7 56.300000000000004 67.7 56.1 67.7 C 54.7 67.7 53.4 66.7 53.2 65.2 C 52.900000000000006 63.6 54 62 55.7 61.800000000000004 C 66.3 60 74 50.8 74 40 C 74 29.2 66.2 20 55.6 18.2 C 54 17.9 52.9 16.4 53.1 14.799999999999999 C 53.4 13.2 54.9 12.099999999999998 56.5 12.299999999999999 C 70.2 14.6 80 26.2 80 40 z M 55.6 48.6 C 54 48.9 52.9 50.4 53.1 52 C 53.300000000000004 53.5 54.6 54.5 56 54.5 C 56.2 54.5 56.3 54.5 56.5 54.5 C 63.6 53.3 68.8 47.2 68.8 40 C 68.8 32.8 63.599999999999994 26.7 56.5 25.5 C 54.9 25.2 53.3 26.3 53.1 28 C 52.800000000000004 29.6 53.9 31.2 55.6 31.4 C 59.800000000000004 32.1 62.9 35.699999999999996 62.9 40 C 62.9 44.3 59.8 47.9 55.6 48.6 z" stroke-linecap="round" />
</g>
</g>
</g>
<g transform="matrix(1 0 0 1 1883.69 40)" id="s-iijJ6IwuqCMxjAJKRzv"  >
<filter id="SVGID_79" y="-36%" height="172%" x="-36%" width="172%" >
	<feGaussianBlur in="SourceAlpha" stdDeviation="2"></feGaussianBlur>
	<feOffset dx="4" dy="4" result="oBlur" ></feOffset>
	<feFlood flood-color="rgb(0,0,0)" flood-opacity="1"/>
	<feComposite in2="oBlur" operator="in" />
	<feMerge>
		<feMergeNode></feMergeNode>
		<feMergeNode in="SourceGraphic"></feMergeNode>
	</feMerge>
</filter>
<g style="filter: url(#SVGID_79);" vector-effect="non-scaling-stroke"   >
		<g transform="matrix(0.61 0 0 0.61 0 0)" id="y0K5boBWmw4kcq9YjsAw3"  >
<path style="stroke: none; stroke-width: 1; stroke-dasharray: none; stroke-linecap: butt; stroke-dashoffset: 0; stroke-linejoin: miter; stroke-miterlimit: 4; fill: rgb(52,152,219); fill-rule: nonzero; opacity: 1;" vector-effect="non-scaling-stroke"  transform=" translate(-40, -40)" d="M 40 0 C 17.9 0 0 17.9 0 40 C 0 62.1 17.9 80 40 80 C 62.1 80 80 62.1 80 40 C 80 17.9 62.1 0 40 0 z" stroke-linecap="round" />
</g>
		<g transform="matrix(0.61 0 0 0.61 0 -0.72)" id="xCtCdBHrRpAFnV0GRajTT"  >
<path style="stroke: none; stroke-width: 1; stroke-dasharray: none; stroke-linecap: butt; stroke-dashoffset: 0; stroke-linejoin: miter; stroke-miterlimit: 4; fill: rgb(255,255,255); fill-rule: nonzero; opacity: 1;" vector-effect="non-scaling-stroke"  transform=" translate(-40, -40)" d="M 40 6.9 C 21.7 6.9 6.9 21.7 6.9 40 C 6.9 58.3 21.8 73.1 40 73.1 C 58.2 73.1 73.1 58.3 73.1 40 C 73.1 21.7 58.3 6.9 40 6.9 z" stroke-linecap="round" />
</g>
		<g transform="matrix(0.61 0 0 0.61 0 -0.52)" id="UcRvuCeciOjk9qHvctQ3g"  >
<path style="stroke: none; stroke-width: 1; stroke-dasharray: none; stroke-linecap: butt; stroke-dashoffset: 0; stroke-linejoin: miter; stroke-miterlimit: 4; fill: rgb(131,0,7); fill-rule: nonzero; opacity: 1;" vector-effect="non-scaling-stroke"  transform=" translate(-40, -40.32)" d="M 66.5 39.4 C 66.5 54 54.6 65.8 40 65.8 C 25.4 65.8 13.5 53.9 13.5 39.3 C 13.5 30.799999999999997 17.6 22.799999999999997 24.4 17.9 C 25.9 16.799999999999997 27.4 15.899999999999999 29.099999999999998 15.2 C 30.799999999999997 14.399999999999999 32.9 15.2 33.599999999999994 16.9 C 34.29999999999999 18.599999999999998 33.599999999999994 20.7 31.899999999999995 21.4 C 30.699999999999996 21.9 29.499999999999996 22.599999999999998 28.399999999999995 23.4 C 23.299999999999997 27.099999999999998 20.299999999999997 33 20.299999999999997 39.3 C 20.4 50.2 29.2 59 40 59 C 50.8 59 59.6 50.2 59.6 39.4 C 59.6 33.1 56.5 27.099999999999998 51.3 23.4 C 50.199999999999996 22.599999999999998 49 21.9 47.8 21.4 C 46.099999999999994 20.599999999999998 45.3 18.599999999999998 46 16.9 C 46.8 15.2 48.8 14.399999999999999 50.5 15.099999999999998 C 52.2 15.799999999999997 53.8 16.7 55.3 17.799999999999997 C 62.3 22.8 66.5 30.8 66.5 39.4 z" stroke-linecap="round" />
</g>
		<g transform="matrix(0.61 0.02 -0.02 0.61 -0.03 -7.64)" id="K7DufuR1wTgyT7gsQBD1Y"  >
<path style="stroke: none; stroke-width: 1; stroke-dasharray: none; stroke-linecap: butt; stroke-dashoffset: 0; stroke-linejoin: miter; stroke-miterlimit: 4; fill: rgb(131,0,7); fill-rule: nonzero; opacity: 1;" vector-effect="non-scaling-stroke"  transform=" translate(-39.95, -28.65)" d="M 36.6 40.3 L 36.6 17 C 36.6 15.4 37.9 14.2 39.4 14.2 L 40.5 14.2 C 42.1 14.2 43.3 15.5 43.3 17 L 43.3 40.3 C 43.3 41.9 42 43.099999999999994 40.5 43.099999999999994 L 39.4 43.099999999999994 C 37.9 43.1 36.6 41.9 36.6 40.3 z" stroke-linecap="round" />
</g>
</g>
</g>
<g transform="matrix(1.29 0 0 1.29 1650.24 122.1)" id="-YJK1aMOlWPM5I4fG85wh"  >
<filter id="SVGID_77" y="-38%" height="176%" x="-36%" width="172%" >
	<feGaussianBlur in="SourceAlpha" stdDeviation="2"></feGaussianBlur>
	<feOffset dx="4" dy="4" result="oBlur" ></feOffset>
	<feFlood flood-color="rgb(0,0,0)" flood-opacity="1"/>
	<feComposite in2="oBlur" operator="in" />
	<feMerge>
		<feMergeNode></feMergeNode>
		<feMergeNode in="SourceGraphic"></feMergeNode>
	</feMerge>
</filter>
<g style="filter: url(#SVGID_77);" vector-effect="non-scaling-stroke"   >
		<g transform="matrix(0.63 0 0 0.63 0.13 3.52)" id="ASTDTnkNarCj-ySDmTJIE"  >
<path style="stroke: none; stroke-width: 1; stroke-dasharray: none; stroke-linecap: butt; stroke-dashoffset: 0; stroke-linejoin: miter; stroke-miterlimit: 4; fill: rgb(26,188,156); fill-rule: evenodd; opacity: 1;" vector-effect="non-scaling-stroke"  transform=" translate(-40.2, -47.3)" d="M 69.7 44.9 C 67.9 43.199999999999996 49.7 25.9 44.2 20.4 C 42.7 18.9 41.800000000000004 18 40.2 18 C 38.6 18 37.7 18.9 36.2 20.4 C 30.700000000000003 25.9 12.500000000000004 43.2 10.700000000000003 44.9 C 8.300000000000002 47.3 8.400000000000002 49.1 8.400000000000002 50.4 C 8.400000000000002 51.4 8.400000000000002 66 8.400000000000002 73 C 8.400000000000002 75.2 9.600000000000001 76.6 11.400000000000002 76.6 C 12.700000000000003 76.6 21.400000000000002 76.6 26.200000000000003 76.6 C 28.200000000000003 76.6 29.400000000000002 74.69999999999999 29.400000000000002 73.1 C 29.500000000000004 70.89999999999999 29.400000000000002 60.39999999999999 29.400000000000002 58.099999999999994 C 29.400000000000002 56.89999999999999 29.500000000000004 56.199999999999996 30.900000000000002 54.49999999999999 C 38.1 45.69999999999999 38.6 45.599999999999994 40.2 45.599999999999994 C 41.7 45.599999999999994 42.300000000000004 45.699999999999996 49.5 54.49999999999999 C 50.9 56.199999999999996 51 56.89999999999999 51 58.099999999999994 C 51 60.49999999999999 50.9 71 51 73.1 C 51 74.69999999999999 52.2 76.6 54.2 76.6 C 59 76.6 67.7 76.6 69 76.6 C 70.8 76.6 72 75.19999999999999 72 73 C 72 66.1 72 51.5 72 50.4 C 72 49.1 72.1 47.3 69.7 44.9 z" stroke-linecap="round" />
</g>
		<g transform="matrix(0.63 0 0 0.63 0 -8.86)" id="2frwDebgEceDr2y8J4aqf"  >
<path style="stroke: none; stroke-width: 1; stroke-dasharray: none; stroke-linecap: butt; stroke-dashoffset: 0; stroke-linejoin: miter; stroke-miterlimit: 4; fill: rgb(52,152,219); fill-rule: evenodd; opacity: 1;" vector-effect="non-scaling-stroke"  transform=" translate(-40, -24.23)" d="M 78.7 36.7 C 78.2 36.2 75 33.2 70.8 29.300000000000004 L 70.8 13 C 70.8 12.2 70.2 11.6 69.5 11.6 L 60.4 11.6 C 59.699999999999996 11.6 59.1 12.2 59.1 13 L 59.1 18.3 C 53 12.7 47.4 7.5 45.4 5.6 C 43.699999999999996 3.8999999999999995 41.9 3.3999999999999995 40 3.3999999999999995 C 38.1 3.3999999999999995 36.3 3.8999999999999995 34.6 5.6 C 29.6 10.3 2.900000000000002 35.1 1.3000000000000043 36.7 C -0.19999999999999574 38.2 -0.2999999999999958 39.5 0.5000000000000042 40.6 L 3.8000000000000043 44.4 C 4.600000000000004 45.3 5.600000000000004 45.199999999999996 6.400000000000004 44.5 C 7.300000000000004 43.7 27.1 24.8 35.900000000000006 16.3 C 37.00000000000001 15.3 38.50000000000001 14 40.00000000000001 14 C 41.50000000000001 14 42.900000000000006 15.2 44.10000000000001 16.3 C 53.00000000000001 24.8 72.80000000000001 43.7 73.60000000000001 44.5 C 74.4 45.2 75.4 45.3 76.2 44.4 L 79.5 40.6 C 80.3 39.5 80.2 38.2 78.7 36.7 z" stroke-linecap="round" />
</g>
</g>
</g>
<g transform="matrix(1 0 0 1 1760.95 527.98)" id="Vw8wd9Tb9FsVrEUj9JR6-"  >
<g style="" vector-effect="non-scaling-stroke"   >
		<g transform="matrix(2.29 0 0 0.03 0.4 317.97)" id="lgn3vJkXu4Kay9_wAgsJB"  >
<path style="stroke: rgb(158,0,0); stroke-width: 0; stroke-dasharray: none; stroke-linecap: butt; stroke-dashoffset: 0; stroke-linejoin: miter; stroke-miterlimit: 4; fill: rgb(231,76,60); fill-rule: nonzero; opacity: 1;" vector-effect="non-scaling-stroke"  transform=" translate(0, 0)" d="M -68.49315 -68.49315 L 68.49315 -68.49315 L 68.49315 68.49315 L -68.49315 68.49315 z" stroke-linecap="round" />
</g>
		<g transform="matrix(2.29 0 0 0.03 0.4 268.26)" id="MKa9FTdRJ7UFEDB2UWDDC"  >
<path style="stroke: rgb(158,0,0); stroke-width: 0; stroke-dasharray: none; stroke-linecap: butt; stroke-dashoffset: 0; stroke-linejoin: miter; stroke-miterlimit: 4; fill: rgb(231,76,60); fill-rule: nonzero; opacity: 1;" vector-effect="non-scaling-stroke"  transform=" translate(0, 0)" d="M -68.49315 -68.49315 L 68.49315 -68.49315 L 68.49315 68.49315 L -68.49315 68.49315 z" stroke-linecap="round" />
</g>
		<g transform="matrix(2.29 0 0 0.03 0.4 210.18)" id="TWZQZcApkjCvKA_wddMDm"  >
<path style="stroke: rgb(158,0,0); stroke-width: 0; stroke-dasharray: none; stroke-linecap: butt; stroke-dashoffset: 0; stroke-linejoin: miter; stroke-miterlimit: 4; fill: rgb(231,76,60); fill-rule: nonzero; opacity: 1;" vector-effect="non-scaling-stroke"  transform=" translate(0, 0)" d="M -68.49315 -68.49315 L 68.49315 -68.49315 L 68.49315 68.49315 L -68.49315 68.49315 z" stroke-linecap="round" />
</g>
		<g transform="matrix(2.29 0 0 0.03 0.4 160.18)" id="-EdrHuMR220g_GGZ1viIO"  >
<path style="stroke: rgb(158,0,0); stroke-width: 0; stroke-dasharray: none; stroke-linecap: butt; stroke-dashoffset: 0; stroke-linejoin: miter; stroke-miterlimit: 4; fill: rgb(231,76,60); fill-rule: nonzero; opacity: 1;" vector-effect="non-scaling-stroke"  transform=" translate(0, 0)" d="M -68.49315 -68.49315 L 68.49315 -68.49315 L 68.49315 68.49315 L -68.49315 68.49315 z" stroke-linecap="round" />
</g>
		<g transform="matrix(2.29 0 0 0.03 0.4 110.18)" id="37O53g_cUG4oVF9pd8Zvh"  >
<path style="stroke: rgb(158,0,0); stroke-width: 0; stroke-dasharray: none; stroke-linecap: butt; stroke-dashoffset: 0; stroke-linejoin: miter; stroke-miterlimit: 4; fill: rgb(231,76,60); fill-rule: nonzero; opacity: 1;" vector-effect="non-scaling-stroke"  transform=" translate(0, 0)" d="M -68.49315 -68.49315 L 68.49315 -68.49315 L 68.49315 68.49315 L -68.49315 68.49315 z" stroke-linecap="round" />
</g>
		<g transform="matrix(1 0 0 1 -103.47 -290.89)" id="M1NBGwEYNJC-fzos6tpAu"  >
<filter id="SVGID_89" y="-31%" height="162%" x="-35%" width="170%" >
	<feGaussianBlur in="SourceAlpha" stdDeviation="2"></feGaussianBlur>
	<feOffset dx="4" dy="4" result="oBlur" ></feOffset>
	<feFlood flood-color="rgb(0,0,0)" flood-opacity="1"/>
	<feComposite in2="oBlur" operator="in" />
	<feMerge>
		<feMergeNode></feMergeNode>
		<feMergeNode in="SourceGraphic"></feMergeNode>
	</feMerge>
</filter>
<g style="filter: url(#SVGID_89);" vector-effect="non-scaling-stroke"   >
		<g transform="matrix(0.92 0 0 0.92 0 0)" id="hn15B5wH6d7rSVWbdO_3p"  >
<path style="stroke: none; stroke-width: 1; stroke-dasharray: none; stroke-linecap: butt; stroke-dashoffset: 0; stroke-linejoin: miter; stroke-miterlimit: 4; fill: rgb(241,196,15); fill-rule: nonzero; opacity: 1;" vector-effect="non-scaling-stroke"  transform=" translate(-40, -40)" d="M 62 27.6 L 67.6 20.200000000000003 L 59 16.6 L 60.2 7.400000000000002 L 51 8.6 L 47.4 0 L 40 5.6 L 32.6 0 L 29 8.6 L 19.8 7.3999999999999995 L 21 16.599999999999998 L 12.4 20.2 L 18 27.6 L 12.4 35 L 21 38.6 L 19.8 47.8 L 26.4 47 L 26.4 80 L 39.8 66.6 L 53.6 80 L 53.6 47 L 60.2 47.8 L 59 38.6 L 67.6 35 L 62 27.6 z" stroke-linecap="round" />
</g>
		<g transform="matrix(0.92 0 0 0.92 -0.72 -12.52)" id="1zYuUT2LREu8M1TVkHJL0"  >
<path style="stroke: none; stroke-width: 1; stroke-dasharray: none; stroke-linecap: butt; stroke-dashoffset: 0; stroke-linejoin: miter; stroke-miterlimit: 4; fill: rgb(255,255,255); fill-rule: nonzero; opacity: 1;" vector-effect="non-scaling-stroke"  transform=" translate(-40, -27.2)" d="M 40 44.1 C 30.7 44.1 23.1 36.5 23.1 27.200000000000003 C 23.1 17.900000000000006 30.7 10.3 40 10.3 C 49.3 10.3 56.9 17.9 56.9 27.2 C 56.9 36.6 49.3 44.1 40 44.1 z" stroke-linecap="round" />
</g>
		<g transform="matrix(0.92 0 0 0.92 -0.72 -12.47)" id="dxApzs016mGfwefgBiayl"  >
<path style="stroke: none; stroke-width: 1; stroke-dasharray: none; stroke-linecap: butt; stroke-dashoffset: 0; stroke-linejoin: miter; stroke-miterlimit: 4; fill: rgb(243,156,18); fill-rule: nonzero; opacity: 1;" vector-effect="non-scaling-stroke"  transform=" translate(-40, -27.25)" d="M 52.5 27.2 C 52.5 34.1 46.9 39.7 40 39.7 C 33.1 39.7 27.5 34.1 27.5 27.200000000000003 C 27.5 20.300000000000004 33.1 14.8 40 14.8 C 46.9 14.8 52.5 20.3 52.5 27.2 z" stroke-linecap="round" />
</g>
</g>
</g>
		<g transform="matrix(1 0 0 1 -122.75 43.02)" style="filter: url(#SVGID_6);" id="bNwW3uGya2hMN1Mm0XWh9"  >
<filter id="SVGID_6" y="-21%" height="142%" x="-34%" width="168%" >
	<feGaussianBlur in="SourceAlpha" stdDeviation="2"></feGaussianBlur>
	<feOffset dx="4" dy="4" result="oBlur" ></feOffset>
	<feFlood flood-color="rgb(0,0,0)" flood-opacity="1"/>
	<feComposite in2="oBlur" operator="in" />
	<feMerge>
		<feMergeNode></feMergeNode>
		<feMergeNode in="SourceGraphic"></feMergeNode>
	</feMerge>
</filter>
		<text xml:space="preserve" font-family="Roboto" font-size="31" font-style="italic" font-weight="800" letter-spacing="0.62" line-height="1.5" style="stroke: rgb(255,255,255); stroke-width: 2; stroke-dasharray: none; stroke-linecap: butt; stroke-dashoffset: 0; stroke-linejoin: miter; stroke-miterlimit: 4; fill: rgb(5,4,4); fill-rule: nonzero; opacity: 1; white-space: pre;" ><tspan x="-8.78" y="-256.98" >2</tspan><tspan x="-8.78" y="-204.44" >3</tspan><tspan x="-8.78" y="-151.89" >4</tspan><tspan x="-8.78" y="-99.35" >5</tspan><tspan x="-8.78" y="-46.8" >6</tspan><tspan x="-8.78" y="5.74" >7</tspan><tspan x="-8.78" y="58.29" >8</tspan><tspan x="-8.78" y="110.83" >9</tspan><tspan x="-17.87" y="163.38" >1</tspan><tspan x="0.31" y="163.38" >0</tspan><tspan x="-17.87" y="215.92" >1</tspan><tspan x="0.31" y="215.92" >1</tspan><tspan x="-17.87" y="268.47" >1</tspan><tspan x="0.31" y="268.47" >2</tspan></text>
</g>
		<g transform="matrix(1 0 0 1 -100.28 -290.3)" style="" id="Tn0udIG7IN_U9i6mVoDgA"  >
		<text xml:space="preserve" font-family="Roboto" font-size="31" font-style="italic" font-weight="800" letter-spacing="0.62" line-height="1.36" style="stroke: rgb(255,255,255); stroke-width: 2; stroke-dasharray: none; stroke-linecap: butt; stroke-dashoffset: 0; stroke-linejoin: miter; stroke-miterlimit: 4; fill: rgb(5,4,4); fill-rule: nonzero; opacity: 1; white-space: pre;" ><tspan x="-12.91" y="-1.24" >1</tspan><tspan x="5.27" y="-1.24" style="white-space: pre; "> </tspan></text>
</g>
		<g transform="matrix(2.29 0 0 0.03 0.4 -249.93)" id="iDxiRf3mPPEnRLZMsnyNt"  >
<path style="stroke: rgb(158,0,0); stroke-width: 0; stroke-dasharray: none; stroke-linecap: butt; stroke-dashoffset: 0; stroke-linejoin: miter; stroke-miterlimit: 4; fill: rgb(231,76,60); fill-rule: nonzero; opacity: 1;" vector-effect="non-scaling-stroke"  transform=" translate(0, 0)" d="M -68.49315 -68.49315 L 68.49315 -68.49315 L 68.49315 68.49315 L -68.49315 68.49315 z" stroke-linecap="round" />
</g>
		<g transform="matrix(2.29 0 0 0.03 0.4 5.71)" id="S0p2VQ8zDHaQszsHuCkNj"  >
<path style="stroke: rgb(158,0,0); stroke-width: 0; stroke-dasharray: none; stroke-linecap: butt; stroke-dashoffset: 0; stroke-linejoin: miter; stroke-miterlimit: 4; fill: rgb(231,76,60); fill-rule: nonzero; opacity: 1;" vector-effect="non-scaling-stroke"  transform=" translate(0, 0)" d="M -68.49315 -68.49315 L 68.49315 -68.49315 L 68.49315 68.49315 L -68.49315 68.49315 z" stroke-linecap="round" />
</g>
		<g transform="matrix(2.29 0 0 0.03 -0.4 -44.97)" id="pB6MC986iNDxR4OIZL1jj"  >
<path style="stroke: rgb(158,0,0); stroke-width: 0; stroke-dasharray: none; stroke-linecap: butt; stroke-dashoffset: 0; stroke-linejoin: miter; stroke-miterlimit: 4; fill: rgb(231,76,60); fill-rule: nonzero; opacity: 1;" vector-effect="non-scaling-stroke"  transform=" translate(0, 0)" d="M -68.49315 -68.49315 L 68.49315 -68.49315 L 68.49315 68.49315 L -68.49315 68.49315 z" stroke-linecap="round" />
</g>
		<g transform="matrix(2.29 0 0 0.03 0.4 -99.69)" id="JgivhRkCxe55wO_5a_S0H"  >
<path style="stroke: rgb(158,0,0); stroke-width: 0; stroke-dasharray: none; stroke-linecap: butt; stroke-dashoffset: 0; stroke-linejoin: miter; stroke-miterlimit: 4; fill: rgb(231,76,60); fill-rule: nonzero; opacity: 1;" vector-effect="non-scaling-stroke"  transform=" translate(0, 0)" d="M -68.49315 -68.49315 L 68.49315 -68.49315 L 68.49315 68.49315 L -68.49315 68.49315 z" stroke-linecap="round" />
</g>
		<g transform="matrix(2.29 0 0 0.03 -0.4 -149.69)" id="kFa1WX0X8mm_udo-4BrdZ"  >
<path style="stroke: rgb(158,0,0); stroke-width: 0; stroke-dasharray: none; stroke-linecap: butt; stroke-dashoffset: 0; stroke-linejoin: miter; stroke-miterlimit: 4; fill: rgb(231,76,60); fill-rule: nonzero; opacity: 1;" vector-effect="non-scaling-stroke"  transform=" translate(0, 0)" d="M -68.49315 -68.49315 L 68.49315 -68.49315 L 68.49315 68.49315 L -68.49315 68.49315 z" stroke-linecap="round" />
</g>
		<g transform="matrix(2.29 0 0 0.03 0.4 -199.69)" id="iwLYyAxsPkIfi1ffe4dy9"  >
<path style="stroke: rgb(158,0,0); stroke-width: 0; stroke-dasharray: none; stroke-linecap: butt; stroke-dashoffset: 0; stroke-linejoin: miter; stroke-miterlimit: 4; fill: rgb(231,76,60); fill-rule: nonzero; opacity: 1;" vector-effect="non-scaling-stroke"  transform=" translate(0, 0)" d="M -68.49315 -68.49315 L 68.49315 -68.49315 L 68.49315 68.49315 L -68.49315 68.49315 z" stroke-linecap="round" />
</g>
		<g transform="matrix(2.29 0 0 0.03 0.4 60.44)" id="RZf8UWmRVhkMQSEfEW1oW"  >
<path style="stroke: rgb(158,0,0); stroke-width: 0; stroke-dasharray: none; stroke-linecap: butt; stroke-dashoffset: 0; stroke-linejoin: miter; stroke-miterlimit: 4; fill: rgb(231,76,60); fill-rule: nonzero; opacity: 1;" vector-effect="non-scaling-stroke"  transform=" translate(0, 0)" d="M -68.49315 -68.49315 L 68.49315 -68.49315 L 68.49315 68.49315 L -68.49315 68.49315 z" stroke-linecap="round" />
</g>
</g>
</g>
<g transform="matrix(1.15 0 0 1.15 1806.32 41.92)" id="tZsxNZ3XOM6e9GBrwBzST"  >
<filter id="SVGID_270" y="-37%" height="174%" x="-38%" width="176%" >
	<feGaussianBlur in="SourceAlpha" stdDeviation="2"></feGaussianBlur>
	<feOffset dx="4" dy="4" result="oBlur" ></feOffset>
	<feFlood flood-color="rgb(0,0,0)" flood-opacity="1"/>
	<feComposite in2="oBlur" operator="in" />
	<feMerge>
		<feMergeNode></feMergeNode>
		<feMergeNode in="SourceGraphic"></feMergeNode>
	</feMerge>
</filter>
<g style="filter: url(#SVGID_270);" vector-effect="non-scaling-stroke"   >
		<g transform="matrix(0.56 0 0 0.56 0 0)" id="PBTLvkKLU09S-MkJIxyy4"  >
<path style="stroke: none; stroke-width: 1; stroke-dasharray: none; stroke-linecap: butt; stroke-dashoffset: 0; stroke-linejoin: miter; stroke-miterlimit: 4; fill: rgb(251,251,251); fill-rule: nonzero; opacity: 1;" vector-effect="non-scaling-stroke"  transform=" translate(0, 0)" d="M 24.55022 -26.09515 L 25.450219999999998 -27.19515 C 27.150219999999997 -29.19515 27.650219999999997 -31.495150000000002 26.950219999999998 -33.49515 C 26.150219999999997 -35.49515 24.25022 -36.89515 21.650219999999997 -37.29515 L 5.050219999999996 -39.89515 C 2.450219999999996 -40.29515 0.15021999999999558 -39.595150000000004 -1.1497800000000042 -37.89515 C -2.549780000000004 -36.29515 -2.7497800000000043 -33.89515 -1.9497800000000043 -31.39515 L 3.6502199999999956 -15.59515 C 4.550219999999996 -13.09515 6.250219999999995 -11.49515 8.350219999999997 -11.09515 C 10.450219999999996 -10.69515 12.550219999999996 -11.69515 14.250219999999997 -13.69515 L 15.250219999999997 -14.89515 C 20.25022 -10.495149999999999 23.050219999999996 -4.29515 23.050219999999996 2.4048500000000015 C 23.050219999999996 15.204850000000002 12.650219999999996 25.60485 -0.14978000000000335 25.60485 C -12.949780000000004 25.60485 -23.249780000000005 15.104849999999999 -23.249780000000005 2.3048499999999983 C -23.249780000000005 -5.695150000000002 -19.249780000000005 -12.995150000000002 -12.449780000000004 -17.295150000000003 C -10.849780000000004 -18.295150000000003 -9.649780000000003 -19.895150000000005 -9.249780000000005 -21.795150000000003 C -8.849780000000004 -23.69515 -9.149780000000005 -25.595150000000004 -10.149780000000005 -27.295150000000003 C -11.149780000000005 -28.895150000000005 -12.749780000000005 -30.095150000000004 -14.649780000000005 -30.495150000000002 C -16.549780000000005 -30.89515 -18.449780000000004 -30.595150000000004 -20.149780000000007 -29.595150000000004 C -31.149780000000007 -22.595150000000004 -37.64978000000001 -10.695150000000005 -37.64978000000001 2.204849999999997 C -37.74978000000001 23.104849999999995 -20.849780000000006 40.00484999999999 -0.049780000000005487 40.00484999999999 C 20.750219999999995 40.00484999999999 37.65022 23.104849999999992 37.65022 2.3048499999999876 C 37.65022 -8.695150000000012 32.85022 -18.995150000000013 24.550219999999996 -26.09515000000001 z" stroke-linecap="round" />
</g>
		<g transform="matrix(0.56 0 0 0.56 -0.03 0.01)" id="sZorcDEdiWnDWgG4TwbqQ"  >
<path style="stroke: none; stroke-width: 1; stroke-dasharray: none; stroke-linecap: butt; stroke-dashoffset: 0; stroke-linejoin: miter; stroke-miterlimit: 4; fill: rgb(136,0,7); fill-rule: nonzero; opacity: 1;" vector-effect="non-scaling-stroke"  transform=" translate(0, 0)" d="M 32.9 2.29082 C 32.9 20.39082 18.099999999999998 35.19082 0 35.19082 C -18.1 35.19082 -32.9 20.39082 -32.9 2.2908200000000036 C -32.9 -9.009179999999997 -27.2 -19.409179999999996 -17.599999999999998 -25.509179999999997 C -16.599999999999998 -26.10918 -15.899999999999999 -25.909179999999996 -15.699999999999998 -25.809179999999998 C -15.099999999999998 -25.709179999999996 -14.499999999999998 -25.309179999999998 -14.199999999999998 -24.709179999999996 C -13.799999999999997 -24.109179999999995 -13.699999999999998 -23.509179999999997 -13.899999999999997 -22.809179999999998 C -13.999999999999996 -22.209179999999996 -14.399999999999997 -21.60918 -14.999999999999996 -21.309179999999998 C -23.199999999999996 -16.10918 -27.999999999999996 -7.309179999999998 -27.999999999999996 2.2908200000000036 C -27.999999999999996 17.690820000000002 -15.499999999999996 30.290820000000004 3.552713678800501e-15 30.290820000000004 C 15.500000000000004 30.290820000000004 28.000000000000004 17.790820000000004 28.000000000000004 2.2908200000000036 C 28.000000000000004 -6.709179999999996 23.800000000000004 -15.009179999999997 16.500000000000004 -20.309179999999998 C 15.500000000000004 -21.009179999999997 14.100000000000003 -20.90918 13.300000000000004 -19.90918 L 10.800000000000004 -16.90918 C 10.200000000000005 -16.20918 9.800000000000004 -15.80918 9.400000000000004 -15.90918 C 9.000000000000004 -16.00918 8.700000000000005 -16.40918 8.400000000000004 -17.309179999999998 L 2.600000000000004 -33.00918 C 2.3000000000000043 -33.80918 2.200000000000004 -34.40918 2.500000000000004 -34.80918 C 2.800000000000004 -35.30918 3.500000000000004 -35.209179999999996 4.300000000000004 -35.109179999999995 L 21.000000000000004 -32.609179999999995 C 22.200000000000003 -32.40917999999999 22.400000000000002 -32.30918 22.600000000000005 -31.909179999999996 C 22.700000000000006 -31.609179999999995 22.500000000000004 -31.009179999999997 21.900000000000006 -30.309179999999994 L 19.500000000000007 -27.409179999999996 C 19.10000000000001 -26.909179999999996 18.900000000000006 -26.309179999999994 19.000000000000007 -25.609179999999995 C 19.10000000000001 -25.009179999999994 19.400000000000006 -24.409179999999996 19.900000000000006 -24.009179999999994 C 28.100000000000005 -17.609179999999995 32.900000000000006 -8.109179999999993 32.900000000000006 2.290820000000007 z" stroke-linecap="round" />
</g>
</g>
</g>
</svg>